<?xml version="1.0" standalone="no"?><!DOCTYPE svg PUBLIC "-//W3C//DTD SVG 1.1//EN" "http://www.w3.org/Graphics/SVG/1.1/DTD/svg11.dtd"><svg t="1705211749783" class="icon" viewBox="0 0 1024 1024" version="1.1" xmlns="http://www.w3.org/2000/svg" p-id="1082" xmlns:xlink="http://www.w3.org/1999/xlink" width="200" height="200"><path d="M512.5 509.5m-416.5 0a416.5 416.5 0 1 0 833 0 416.5 416.5 0 1 0-833 0Z" fill="#FFF4E6" p-id="1083"></path><path d="M515.6 202.05h0.54c139.62 0 259.12 73.37 283.49 174.06a34 34 0 0 1-33 42H265.15a34 34 0 0 1-33-42C256.47 275.42 376 202.05 515.6 202.05z" fill="#FCAE3F" p-id="1084"></path><path d="M232 418.58m51.8 0l464.79 0q51.8 0 51.8 51.8l0 0q0 51.8-51.8 51.8l-464.79 0q-51.8 0-51.8-51.8l0 0q0-51.8 51.8-51.8Z" fill="#FC6257" p-id="1085"></path><path d="M272.65 597.78h487.1a40.64 40.64 0 0 1 40.64 40.64v21.92A102.64 102.64 0 0 1 697.76 763H332.58A100.57 100.57 0 0 1 232 662.4v-24a40.64 40.64 0 0 1 40.64-40.64z" fill="#FCAE3F" p-id="1086"></path><path d="M758.68 522.18H265a37.33 37.33 0 0 0-37.33 37.33A37.33 37.33 0 0 0 265 596.84h74.72a24.49 24.49 0 0 1 20.42 11l29.59 44.76a34.9 34.9 0 0 0 46.49 11l110.6-63.5a24.47 24.47 0 0 1 12.18-3.26h199.68A37.33 37.33 0 0 0 796 559.51a37.33 37.33 0 0 0-37.32-37.33z" fill="#FEEC71" p-id="1087"></path><path d="M415.78 260.46s8.83-11.68 21.78-2.72c0 0 12.8 8.07 11.66 16.26 0 0-2.13 11.15-22.11 4.3 0 0-15.87-7.3-11.33-17.84zM472.47 347.47s-13.07-6.6-6.57-20.94c0 0 5.65-14 13.91-14.38 0 0 11.35 0.1 8.18 21 0.01-0.02-4.35 16.91-15.52 14.32zM562.27 309.54S547.75 311.49 545 296c0 0-3.27-14.77 3.35-19.72 0 0 9.42-6.33 18.6 12.69 0.05-0.03 6.05 16.39-4.68 20.57zM700.37 334.35s-14 4.43-19.33-10.38c0 0-5.77-14-0.11-20 0 0 8.19-7.86 20.52 9.29 0-0.01 8.72 15.13-1.08 21.09zM630.15 269.73s-11 9.66-21.87-1.75c0 0-10.9-10.49-8.13-18.28 0 0 4.35-10.48 22.52 0.27 0 0.03 14.07 10.37 7.48 19.76zM337.76 332.06s-8.26-12.08 4.36-21.5c0 0 11.73-9.56 19.13-5.87 0 0 9.89 5.57-3 22.32 0.03-0.01-11.96 12.72-20.49 5.05z" fill="#FFF4E6" p-id="1088"></path><path d="M278.71 376.06c23-95 130.71-165.69 260.1-173.36-7.73-0.45-15.53-0.7-23.4-0.7h-0.54c-139.62 0-259.12 73.37-283.49 174.06a34 34 0 0 0 33.05 42h47.33a34 34 0 0 1-33.05-42z" fill="#EF9529" p-id="1089"></path><path d="M271.53 470.33a51.8 51.8 0 0 1 51.8-51.8H283a51.8 51.8 0 0 0-51.8 51.8 51.8 51.8 0 0 0 51.8 51.8h40.32a51.8 51.8 0 0 1-51.79-51.8z" fill="#F44642" p-id="1090"></path><path d="M263.13 560.72a37.34 37.34 0 0 1 37.34-37.33h-35.94a37.34 37.34 0 0 0 0 74.67h35.94a37.34 37.34 0 0 1-37.34-37.34z" fill="#FFDB45" p-id="1091"></path><path d="M275.43 675v-41.39A35.62 35.62 0 0 1 311.05 598h-43.83a35.62 35.62 0 0 0-35.62 35.62V675a88.16 88.16 0 0 0 88.15 88.16h43.83A88.15 88.15 0 0 1 275.43 675z" fill="#EF9529" p-id="1092"></path></svg>